<svg id="visual" className="max-w-screen" viewBox="0 0 960 540" xmlns="http://www.w3.org/2000/svg" xmlnsXlink="http://www.w3.org/1999/xlink" version="1.1">
    <rect x="0" y="0" width="960" height="540" fill="#4e3cc1"></rect>
    <path d="M0 49L22.8 58.5C45.7 68 91.3 87 137 95.2C182.7 103.3 228.3 100.7 274 93C319.7 85.3 365.3 72.7 411.2 68.2C457 63.7 503 67.3 548.8 67.7C594.7 68 640.3 65 686 72.2C731.7 79.3 777.3 96.7 823 103C868.7 109.3 914.3 104.7 937.2 102.3L960 100L960 0L937.2 0C914.3 0 868.7 0 823 0C777.3 0 731.7 0 686 0C640.3 0 594.7 0 548.8 0C503 0 457 0 411.2 0C365.3 0 319.7 0 274 0C228.3 0 182.7 0 137 0C91.3 0 45.7 0 22.8 0L0 0Z" fill="#7562f3" stroke-linecap="round" stroke-linejoin="miter"></path>
</svg>