<svg id="visual" viewBox="0 0 900 600" width="900" height="600" xmlns="http://www.w3.org/2000/svg" xmlns:xlink="http://www.w3.org/1999/xlink" version="1.1">
    <rect x="0" y="0" width="900" height="600" fill="#6b74d9"></rect>
    <path d="M0 92L16.7 89.8C33.3 87.7 66.7 83.3 100 86C133.3 88.7 166.7 98.3 200 112.7C233.3 127 266.7 146 300 142.8C333.3 139.7 366.7 114.3 400 102.7C433.3 91 466.7 93 500 88.8C533.3 84.7 566.7 74.3 600 76.5C633.3 78.7 666.7 93.3 700 93.3C733.3 93.3 766.7 78.7 800 74C833.3 69.3 866.7 74.7 883.3 77.3L900 80L900 0L883.3 0C866.7 0 833.3 0 800 0C766.7 0 733.3 0 700 0C666.7 0 633.3 0 600 0C566.7 0 533.3 0 500 0C466.7 0 433.3 0 400 0C366.7 0 333.3 0 300 0C266.7 0 233.3 0 200 0C166.7 0 133.3 0 100 0C66.7 0 33.3 0 16.7 0L0 0Z" fill="#4e3cc1" stroke-linecap="round" stroke-linejoin="miter"></path>
</svg>