<svg id="visual" viewBox="0 0 900 600" width="900" height="600" xmlns="http://www.w3.org/2000/svg" xmlns:xlink="http://www.w3.org/1999/xlink" version="1.1">
    <path d="M0 97L18.8 96C37.7 95 75.3 93 112.8 100C150.3 107 187.7 123 225.2 116C262.7 109 300.3 79 337.8 71C375.3 63 412.7 77 450.2 80C487.7 83 525.3 75 562.8 68C600.3 61 637.7 55 675.2 67C712.7 79 750.3 109 787.8 114C825.3 119 862.7 99 881.3 89L900 79L900 0L881.3 0C862.7 0 825.3 0 787.8 0C750.3 0 712.7 0 675.2 0C637.7 0 600.3 0 562.8 0C525.3 0 487.7 0 450.2 0C412.7 0 375.3 0 337.8 0C300.3 0 262.7 0 225.2 0C187.7 0 150.3 0 112.8 0C75.3 0 37.7 0 18.8 0L0 0Z" fill="#6b74d9"></path>
    <path d="M0 289L18.8 283C37.7 277 75.3 265 112.8 258C150.3 251 187.7 249 225.2 247C262.7 245 300.3 243 337.8 248C375.3 253 412.7 265 450.2 259C487.7 253 525.3 229 562.8 214C600.3 199 637.7 193 675.2 213C712.7 233 750.3 279 787.8 299C825.3 319 862.7 313 881.3 310L900 307L900 77L881.3 87C862.7 97 825.3 117 787.8 112C750.3 107 712.7 77 675.2 65C637.7 53 600.3 59 562.8 66C525.3 73 487.7 81 450.2 78C412.7 75 375.3 61 337.8 69C300.3 77 262.7 107 225.2 114C187.7 121 150.3 105 112.8 98C75.3 91 37.7 93 18.8 94L0 95Z" fill="#6560dc"></path>
    <path d="M0 541L18.8 528C37.7 515 75.3 489 112.8 473C150.3 457 187.7 451 225.2 463C262.7 475 300.3 505 337.8 506C375.3 507 412.7 479 450.2 479C487.7 479 525.3 507 562.8 515C600.3 523 637.7 511 675.2 496C712.7 481 750.3 463 787.8 453C825.3 443 862.7 441 881.3 440L900 439L900 305L881.3 308C862.7 311 825.3 317 787.8 297C750.3 277 712.7 231 675.2 211C637.7 191 600.3 197 562.8 212C525.3 227 487.7 251 450.2 257C412.7 263 375.3 251 337.8 246C300.3 241 262.7 243 225.2 245C187.7 247 150.3 249 112.8 256C75.3 263 37.7 275 18.8 281L0 287Z" fill="#6547dc"></path>
    <path d="M0 601L18.8 601C37.7 601 75.3 601 112.8 601C150.3 601 187.7 601 225.2 601C262.7 601 300.3 601 337.8 601C375.3 601 412.7 601 450.2 601C487.7 601 525.3 601 562.8 601C600.3 601 637.7 601 675.2 601C712.7 601 750.3 601 787.8 601C825.3 601 862.7 601 881.3 601L900 601L900 437L881.3 438C862.7 439 825.3 441 787.8 451C750.3 461 712.7 479 675.2 494C637.7 509 600.3 521 562.8 513C525.3 505 487.7 477 450.2 477C412.7 477 375.3 505 337.8 504C300.3 503 262.7 473 225.2 461C187.7 449 150.3 455 112.8 471C75.3 487 37.7 513 18.8 526L0 539Z" fill="#6c25d8"></path>
</svg>